#VRML V2.0 utf8

#Cosmo Worlds V2.0

PROTO petal [
]
{
DEF main_TR_0 Transform {
children	Shape {
appearance	Appearance {
material	Material {
diffuseColor	0.5 0 0
specularColor	1 0 0
}

}

geometry	DEF main_EX_1 Extrusion {
crossSection	[ 0 1,
  0.7 0.7,
  1 0,
  0.7 -0.7,
  0 -1,
  0.3 -0.7,
  0.5 0,
  0.3 0.7,
  0 1 ]
spine	[ 0 0 0,
  1.2 2 0,
  1.5 3 0,
  1.3 4 0,
  0 7 0 ]
scale	[ 0.1 0.1,
  1 2.5,
  1 2.5,
  1 2.2,
  0.1 0.5 ]
orientation	0 0 1  0
solid	TRUE
convex	FALSE
creaseAngle	3.14
}

}

rotation	0 0 1  0
}
DEF main_TIS_2 TimeSensor {
stopTime	-1
cycleInterval	10
loop	TRUE
}
DEF main_OI_3 OrientationInterpolator {
key	[ 0, 0.2, 0.35, 0.5,
  1 ]
keyValue	[ 0 0 1  0,
  0 0 1  0,
  0 0 -1  0.2,
  0 0 -1  0.5,
  0 0 -1  0.5 ]
}
DEF main_CI_4 CoordinateInterpolator {
key	[ 0, 0.2, 0.35, 0.5,
  1 ]
keyValue	[ 0 0 0,
  1.2 2 0,
  1.5 3 0,
  1.3 4 0,
  0 7 0,
  0 0 0,
  1.2 2 0,
  1.5 3 0,
  1.3 4 0,
  0 7 0,
  0 0 0,
  1.2 2 0,
  1.5 3 0,
  1.3 4 0,
  0 7 0,
  0 0 0,
  1.2 1.5 0,
  1 3.5 0,
  1.8 4 0,
  3 3.5 0,
  0 0 0,
  1.2 1.5 0,
  1 3.5 0,
  1.8 4 0,
  3 3.5 0 ]
}
ROUTE main_CI_4.value_changed TO main_EX_1.set_spine
ROUTE main_OI_3.value_changed TO main_TR_0.set_rotation
ROUTE main_TIS_2.fraction_changed TO main_OI_3.set_fraction
ROUTE main_TIS_2.fraction_changed TO main_CI_4.set_fraction
}
WorldInfo {
info	"Published by Cosmo Worlds V2.0"
}
NavigationInfo {
headlight	TRUE
type	"EXAMINE"
}
Background {
groundAngle	1.5708
groundColor	[ 0 0 0.2,
  0 0.5 1 ]
skyAngle	[ 0.7854, 1.5708 ]
skyColor	[ 0 0 0.2,
  0 0 0.5,
  0 0.5 1 ]
}
Viewpoint {
position	0 0.8 15
description	"Main"
}
Transform {
children	Shape {
appearance	Appearance {
material	Material {
diffuseColor	0 0.4 0
}

}

geometry	DEF buton_EX_5 Extrusion {
crossSection	[ 0 1,
  0.7 0.7,
  1 0,
  0.7 -0.7,
  0 -1,
  -0.7 -0.7,
  -1 0,
  -0.7 0.7,
  0 1 ]
spine	[ 0 -3 0,
  0 -1 0,
  0 2 0,
  0 4 0,
  0 6 0 ]
scale	[ 0.1 0.1,
  2 2,
  3 3,
  2 2,
  0.5 0.5 ]
orientation	0 0 1  0
endCap	FALSE
solid	TRUE
convex	FALSE
creaseAngle	3.14
}

}

rotation	0.987878 0.109764 -0.109764  1.2
scale	0.3 0.5 0.3
}
DEF main_TR_6 Transform {
children	DEF main1_TR_7 Transform {
children	[
DEF layer1_GR_8 Group {
children	[
Transform {
children	DEF petal1_9 petal {
}

translation	0.3 0 0
rotation	0 0 1  0
}
Transform {
children	USE petal1_9

translation	0 0.1 -0.4
rotation	0 1 0  1.57
}
Transform {
children	USE petal1_9

translation	-0.5 0.2 0
rotation	0 1 0  3.14
}
Transform {
children	USE petal1_9

translation	0 0.3 0.6
rotation	0 1 0  4.71
}
]
}
Transform {
children	USE layer1_GR_8

translation	0 0.95 0
rotation	0 1 0  0.5
scale	1 1 0.9
}
Transform {
children	USE layer1_GR_8

translation	0 1.7 0
rotation	0 1 0  1
scale	0.7 1 0.7
}
Transform {
children	USE layer1_GR_8

translation	0 2.3 0
rotation	0 1 0  1.5
scale	0.5 1 0.5
}
Transform {
children	USE layer1_GR_8

translation	0 2.3 0
rotation	0 1 0  2
scale	0.3 1 0.3
}
Transform {
children	USE layer1_GR_8

translation	0 2.3 0
rotation	0 1 0  2.5
scale	0.2 1 0.2
}
Transform {
children	USE layer1_GR_8

translation	0 2.3 0
rotation	0 1 0  3
scale	0.1 1 0.1
}
Transform {
children	USE layer1_GR_8

translation	0 2.3 0
rotation	0 1 0  0.5
scale	0.05 1 0.05
}
]
rotation	0 0 1  0
}

rotation	0.987878 0.109764 -0.109764  1.2
scale	0.2 0.4 0.2
}
DEF main_TIS_10 TimeSensor {
cycleInterval	10
loop	TRUE
}
DEF slow_TIS_11 TimeSensor {
cycleInterval	60
loop	TRUE
}
DEF main_PI_12 PositionInterpolator {
key	[ 0, 0.2, 0.35, 0.5,
  1 ]
keyValue	[ 0.2 0.4 0.2,
  0.3 0.6 0.3,
  0.5 0.8 0.5,
  1 1 1,
  1 1 1 ]
}
DEF main1_OI_13 OrientationInterpolator {
key	[ 0, 0.5, 1 ]
keyValue	[ 0 0 1  0,
  0 1 0  3.14,
  0 1 0  6.28002 ]
}
DEF buton_CI_14 CoordinateInterpolator {
key	[ 0, 0.2, 0.35, 0.5,
  1 ]
keyValue	[ 0 -3 0,
  0 -1 0,
  0 2 0,
  0 4 0,
  0 6 0,
  0 -3 0,
  0 -1 0,
  0 2 0,
  0 3 0,
  0 4 0,
  0 -3 0,
  0 -1 0,
  0 2 0,
  0 2 0,
  0 3 0,
  0 -3 0,
  0 -1 0,
  0 1 0,
  0 1 0,
  0 1 0,
  0 -3 0,
  0 -1 0,
  0 1 0,
  0 1 0,
  0 1 0 ]
}
ROUTE buton_CI_14.value_changed TO buton_EX_5.set_spine
ROUTE main1_OI_13.value_changed TO main1_TR_7.set_rotation
ROUTE main_PI_12.value_changed TO main_TR_6.set_scale
ROUTE main_TIS_10.fraction_changed TO main_PI_12.set_fraction
ROUTE slow_TIS_11.fraction_changed TO main1_OI_13.set_fraction
ROUTE main_TIS_10.fraction_changed TO buton_CI_14.set_fraction
