#VRML V2.0 utf8

#Cosmo Worlds V2.0

WorldInfo {
info	"Published by Cosmo Worlds V2.0"
}
DEF _0 Transform {
children	[
NavigationInfo {
avatarSize	[ 0, 0, 0 ]
headlight	FALSE
type	"WALK"
}
DEF NoName Transform {
children	[
DEF sensor4 Transform {
children	Shape {
appearance	Appearance {
material	Material {
ambientIntensity	0.32
diffuseColor	0.31 0.773 0.302
specularColor	0.45 0.45 0.45
emissiveColor	0 0 0
shininess	0.16
transparency	0
}

}

geometry	DEF _1 IndexedFaceSet {
coord	Coordinate {
point	[ -1 -1 -1,
  -1 -1 1,
  1 -1 -1,
  1 -1 1,
  -1 1 -1,
  1 1 -1,
  1 1 1,
  -1 1 1 ]
}

color	Color {
color	[ 0 0 0,
  0 0 0,
  0 0 0,
  0 0 0,
  0 0 0,
  0 0 0,
  0.447 0.42 0.773,
  0 0 0 ]
}

coordIndex	[ 2, 0, 1, 3, -1, 4, 0, 2,
  5, -1, 5, 2, 3, 6, -1, 6,
  3, 1, 7, -1, 4, 5, 6, 7,
  -1, 0, 4, 7, 1, -1 ]
colorPerVertex	TRUE
ccw	FALSE
convex	FALSE
solid	TRUE
creaseAngle	0.559
normalIndex	[  ]
texCoordIndex	[  ]
}

}

translation	4.19 4.79 -14
scale	0.5 0.5 0.25
}
DEF sensor3 Transform {
children	Shape {
appearance	Appearance {
material	Material {
ambientIntensity	0.32
diffuseColor	0.31 0.773 0.302
specularColor	0.45 0.45 0.45
emissiveColor	0 0 0
shininess	0.16
transparency	0
}

}

geometry	DEF _2 IndexedFaceSet {
coord	Coordinate {
point	[ -1 -1 -1,
  -1 -1 1,
  1 -1 -1,
  1 -1 1,
  -1 1 -1,
  1 1 -1,
  1 1 1,
  -1 1 1 ]
}

color	Color {
color	[ 0 0 0,
  0 0 0,
  0 0 0,
  0 0 0,
  0 0 0,
  0 0 0,
  0.447 0.42 0.773,
  0 0 0 ]
}

coordIndex	[ 2, 0, 1, 3, -1, 4, 0, 2,
  5, -1, 5, 2, 3, 6, -1, 6,
  3, 1, 7, -1, 4, 5, 6, 7,
  -1, 0, 4, 7, 1, -1 ]
colorPerVertex	TRUE
ccw	FALSE
convex	FALSE
solid	TRUE
creaseAngle	0.559
normalIndex	[  ]
texCoordIndex	[  ]
}

}

translation	-4.37 4.79 -14
scale	0.5 0.5 0.25
}
DEF sensor2 Transform {
children	Shape {
appearance	Appearance {
material	Material {
ambientIntensity	0.32
diffuseColor	0.31 0.773 0.302
specularColor	0.45 0.45 0.45
emissiveColor	0 0 0
shininess	0.16
transparency	0
}

}

geometry	DEF _3 IndexedFaceSet {
coord	Coordinate {
point	[ -1 -1 -1,
  -1 -1 1,
  1 -1 -1,
  1 -1 1,
  -1 1 -1,
  1 1 -1,
  1 1 1,
  -1 1 1 ]
}

color	Color {
color	[ 0 0 0,
  0 0 0,
  0 0 0,
  0.459 0.506 0.773,
  0 0 0,
  0 0 0,
  0 0 0,
  0 0 0 ]
}

coordIndex	[ 2, 0, 1, 3, -1, 4, 0, 2,
  5, -1, 5, 2, 3, 6, -1, 6,
  3, 1, 7, -1, 4, 5, 6, 7,
  -1, 0, 4, 7, 1, -1 ]
colorPerVertex	TRUE
ccw	FALSE
convex	FALSE
solid	TRUE
creaseAngle	0.559
normalIndex	[  ]
texCoordIndex	[  ]
}

}

translation	4.19 -14.8 -14
scale	0.5 0.5 0.25
}
DEF sensor1 Transform {
children	Shape {
appearance	Appearance {
material	Material {
ambientIntensity	0.32
diffuseColor	0.31 0.773 0.302
specularColor	0.45 0.45 0.45
emissiveColor	0 0 0
shininess	0.16
transparency	0
}

}

geometry	DEF _4 IndexedFaceSet {
coord	Coordinate {
point	[ -1 -1 -1,
  -1 -1 1,
  1 -1 -1,
  1 -1 1,
  -1 1 -1,
  1 1 -1,
  1 1 1,
  -1 1 1 ]
}

color	Color {
color	[ 0 0 0,
  0 0 0,
  0 0 0,
  0.459 0.506 0.773,
  0 0 0,
  0 0 0,
  0 0 0,
  0 0 0 ]
}

coordIndex	[ 2, 0, 1, 3, -1, 4, 0, 2,
  5, -1, 5, 2, 3, 6, -1, 6,
  3, 1, 7, -1, 4, 5, 6, 7,
  -1, 0, 4, 7, 1, -1 ]
colorPerVertex	TRUE
ccw	FALSE
convex	FALSE
solid	TRUE
creaseAngle	0.559
normalIndex	[  ]
texCoordIndex	[  ]
}

}

translation	-4.37 -14.8 -14
scale	0.5 0.5 0.25
}
DEF body Transform {
children	[
DEF siren2 Transform {
children	Shape {
appearance	Appearance {
material	Material {
ambientIntensity	1
diffuseColor	0.8 0.312548 0.312548
specularColor	0.8 0.8 0.8
emissiveColor	0 0 0
shininess	0.2
transparency	0
}

}

geometry	DEF _5 IndexedFaceSet {
coord	Coordinate {
point	[ 1 0 -1,
  0.924 0.383 -1,
  0.707 0.707 -1,
  0.383 0.924 -1,
  -1.03e-013 1 -1,
  -0.383 0.924 -1,
  -0.707 0.707 -1,
  -0.924 0.383 -1,
  -1 -2.07e-013 -1,
  -0.924 -0.383 -1,
  -0.707 -0.707 -1,
  -0.383 -0.924 -1,
  3.11e-013 -1 -1,
  0.383 -0.924 -1,
  0.707 -0.707 -1,
  0.924 -0.383 -1,
  1 0 1,
  0.924 0.383 1,
  0.707 0.707 1,
  0.383 0.924 1,
  -1.03e-013 1 1,
  -0.383 0.924 1,
  -0.707 0.707 1,
  -0.924 0.383 1,
  -1 -2.07e-013 1,
  3.11e-013 -1 1,
  0.383 -0.924 1,
  0.707 -0.707 1,
  0.924 -0.383 1,
  -0.707 -0.707 0.975,
  -0.00308 -0.999 1,
  -0.999 -0.00269 1,
  0.383 -0.924 0.99,
  0.383 -0.924 0.986,
  3.11e-013 -1 0.995,
  3.11e-013 -1 0.981,
  -0.383 -0.924 0.977,
  -0.924 -0.383 0.976,
  -1 -2.07e-013 0.996,
  -1 -2.07e-013 0.979,
  -0.924 0.383 0.991,
  -0.924 0.383 0.984,
  0.704 -0.709 0.986,
  0.379 -0.925 0.981,
  -0.00308 -0.999 0.977,
  -0.384 -0.923 0.974,
  -0.923 -0.384 0.974,
  -0.999 -0.00269 0.976,
  -0.925 0.379 0.979,
  -0.709 0.704 0.984,
  0.705 -0.709 0.988,
  0.917 -0.384 1,
  0.701 -0.707 1,
  0.704 -0.709 0.99,
  0.378 -0.923 1,
  0.379 -0.925 0.995,
  -0.924 0.379 1,
  -0.925 0.379 0.996,
  -0.708 0.706 0.988,
  -0.708 0.702 1,
  -0.709 0.704 0.991,
  -0.384 0.918 1,
  -0.00308 0.994 1,
  0.378 0.918 1,
  0.701 0.702 1,
  0.993 -0.00269 1,
  0.917 0.379 1,
  -0.00308 -0.00269 1.65,
  0.38 -0.00269 1.6,
  0.35 0.144 1.6,
  0.268 0.268 1.6,
  0.143 0.351 1.6,
  -0.00308 0.38 1.6,
  -0.15 0.351 1.6,
  -0.274 0.268 1.6,
  -0.357 0.144 1.6,
  -0.386 -0.00269 1.6,
  -0.357 -0.149 1.6,
  -0.274 -0.273 1.6,
  -0.15 -0.356 1.6,
  -0.00308 -0.385 1.6,
  0.143 -0.356 1.6,
  0.268 -0.273 1.6,
  0.35 -0.149 1.6,
  0.704 -0.00269 1.46,
  0.65 0.268 1.46,
  0.497 0.497 1.46,
  0.268 0.651 1.46,
  -0.00308 0.704 1.46,
  -0.274 0.651 1.46,
  -0.503 0.497 1.46,
  -0.656 0.268 1.46,
  -0.71 -0.00269 1.46,
  -0.656 -0.273 1.46,
  -0.503 -0.503 1.46,
  -0.274 -0.656 1.46,
  -0.00308 -0.71 1.46,
  0.268 -0.656 1.46,
  0.497 -0.503 1.46,
  0.65 -0.273 1.46,
  0.921 -0.00269 1.24,
  0.85 0.351 1.24,
  0.65 0.651 1.24,
  0.35 0.851 1.24,
  -0.00308 0.921 1.24,
  -0.357 0.851 1.24,
  -0.656 0.651 1.24,
  -0.857 0.351 1.24,
  -0.927 -0.00269 1.24,
  -0.857 -0.356 1.24,
  -0.656 -0.656 1.24,
  -0.357 -0.856 1.24,
  -0.00308 -0.927 1.24,
  0.35 -0.856 1.24,
  0.65 -0.656 1.24,
  0.85 -0.356 1.24,
  -0.71 0.704 0.988,
  -0.927 0.38 0.988,
  -1 -0.00269 0.988,
  -0.927 -0.385 0.988,
  -0.71 -0.71 0.988,
  -0.386 -0.927 0.988,
  -0.00308 -1 0.988,
  0.38 -0.927 0.988,
  0.704 -0.71 0.988 ]
}

coordIndex	[ 0, 16, 17, 1, -1, 1, 17, 18,
  2, -1, 2, 18, 19, 3, -1, 3,
  19, 20, 4, -1, 4, 20, 21, 5,
  -1, 5, 21, 22, 6, -1, 37, 9,
  8, 39, 47, -1, 14, 27, 28, 15,
  -1, 15, 28, 16, 0, -1, 2, 3,
  4, 5, 6, 7, 8, 9, 10, 11,
  12, 13, 14, 15, 0, 1, -1, 33,
  13, 12, 35, 43, -1, 25, 34, 30,
  -1, 24, 31, 38, -1, 50, 53, 32,
  26, 27, 14, 13, 33, 42, -1, 34,
  25, 26, 32, 55, -1, 29, 10, 9,
  37, 46, -1, 39, 8, 7, 41, 48,
  -1, 58, 49, 41, 7, 6, 22, 23,
  40, 60, -1, 36, 11, 10, 29, 45,
  -1, 35, 12, 11, 36, 44, -1, 64,
  63, 62, 61, 59, 56, 31, 24, 23,
  22, 21, 20, 19, 18, 17, 16, 28,
  27, 26, 25, 30, 54, 52, 51, 65,
  66, -1, 40, 23, 24, 38, 57, -1,
  68, 67, 69, -1, 69, 67, 70, -1,
  70, 67, 71, -1, 71, 67, 72, -1,
  72, 67, 73, -1, 73, 67, 74, -1,
  74, 67, 75, -1, 75, 67, 76, -1,
  76, 67, 77, -1, 77, 67, 78, -1,
  78, 67, 79, -1, 79, 67, 80, -1,
  80, 67, 81, -1, 81, 67, 82, -1,
  82, 67, 83, -1, 83, 67, 68, -1,
  85, 84, 68, 69, -1, 86, 85, 69,
  70, -1, 87, 86, 70, 71, -1, 88,
  87, 71, 72, -1, 89, 88, 72, 73,
  -1, 90, 89, 73, 74, -1, 91, 90,
  74, 75, -1, 92, 91, 75, 76, -1,
  93, 92, 76, 77, -1, 94, 93, 77,
  78, -1, 95, 94, 78, 79, -1, 96,
  95, 79, 80, -1, 97, 96, 80, 81,
  -1, 98, 97, 81, 82, -1, 99, 98,
  82, 83, -1, 84, 99, 83, 68, -1,
  101, 100, 84, 85, -1, 102, 101, 85,
  86, -1, 103, 102, 86, 87, -1, 104,
  103, 87, 88, -1, 105, 104, 88, 89,
  -1, 106, 105, 89, 90, -1, 107, 106,
  90, 91, -1, 108, 107, 91, 92, -1,
  109, 108, 92, 93, -1, 110, 109, 93,
  94, -1, 111, 110, 94, 95, -1, 112,
  111, 95, 96, -1, 113, 112, 96, 97,
  -1, 114, 113, 97, 98, -1, 115, 114,
  98, 99, -1, 100, 115, 99, 84, -1,
  116, 58, 60, -1, 107, 108, 31, 56,
  -1, 31, 118, 117, 57, 38, -1, 119,
  118, 31, 108, 109, -1, 119, 109, 110,
  120, -1, 120, 110, 111, 121, -1, 112,
  30, 122, 121, 111, -1, 102, 103, 63,
  64, -1, 114, 115, 51, 52, -1, 115,
  100, 65, 51, -1, 119, 120, 29, 46,
  -1, 120, 121, 45, 29, -1, 124, 50,
  42, -1, 113, 114, 52, 54, -1, 43,
  123, 124, 42, 33, -1, 112, 113, 54,
  30, -1, 44, 122, 123, 43, 35, -1,
  45, 121, 122, 44, 36, -1, 47, 118,
  119, 46, 37, -1, 57, 117, 116, 60,
  40, -1, 117, 118, 47, 39, 48, -1,
  116, 117, 48, 41, 49, -1, 106, 107,
  56, 59, -1, 116, 49, 58, -1, 105,
  106, 59, 61, -1, 103, 104, 62, 63,
  -1, 104, 105, 61, 62, -1, 123, 122,
  30, 34, 55, -1, 124, 123, 55, 32,
  53, -1, 124, 53, 50, -1, 101, 102,
  64, 66, -1, 100, 101, 66, 65, -1 ]
colorPerVertex	FALSE
ccw	FALSE
convex	FALSE
solid	TRUE
creaseAngle	0.559
normalIndex	[  ]
texCoordIndex	[  ]
}

}

translation	-5.9 2.74 -9.00125
scale	0.5 0.5 0.75
center	0 0 0.325
}
DEF siren1 Transform {
children	Shape {
appearance	Appearance {
material	Material {
ambientIntensity	1
diffuseColor	0.8 0.312548 0.312548
specularColor	0.8 0.8 0.8
emissiveColor	0 0 0
shininess	0.2
transparency	0
}

}

geometry	DEF _6 IndexedFaceSet {
coord	Coordinate {
point	[ 1 0 -1,
  0.924 0.383 -1,
  0.707 0.707 -1,
  0.383 0.924 -1,
  -1.03e-013 1 -1,
  -0.383 0.924 -1,
  -0.707 0.707 -1,
  -0.924 0.383 -1,
  -1 -2.07e-013 -1,
  -0.924 -0.383 -1,
  -0.707 -0.707 -1,
  -0.383 -0.924 -1,
  3.11e-013 -1 -1,
  0.383 -0.924 -1,
  0.707 -0.707 -1,
  0.924 -0.383 -1,
  1 0 1,
  0.924 0.383 1,
  0.707 0.707 1,
  0.383 0.924 1,
  -1.03e-013 1 1,
  -0.383 0.924 1,
  -0.707 0.707 1,
  -0.924 0.383 1,
  -1 -2.07e-013 1,
  3.11e-013 -1 1,
  0.383 -0.924 1,
  0.707 -0.707 1,
  0.924 -0.383 1,
  -0.707 -0.707 0.975,
  -0.00308 -0.999 1,
  -0.999 -0.00269 1,
  0.383 -0.924 0.99,
  0.383 -0.924 0.986,
  3.11e-013 -1 0.995,
  3.11e-013 -1 0.981,
  -0.383 -0.924 0.977,
  -0.924 -0.383 0.976,
  -1 -2.07e-013 0.996,
  -1 -2.07e-013 0.979,
  -0.924 0.383 0.991,
  -0.924 0.383 0.984,
  0.704 -0.709 0.986,
  0.379 -0.925 0.981,
  -0.00308 -0.999 0.977,
  -0.384 -0.923 0.974,
  -0.923 -0.384 0.974,
  -0.999 -0.00269 0.976,
  -0.925 0.379 0.979,
  -0.709 0.704 0.984,
  0.705 -0.709 0.988,
  0.917 -0.384 1,
  0.701 -0.707 1,
  0.704 -0.709 0.99,
  0.378 -0.923 1,
  0.379 -0.925 0.995,
  -0.924 0.379 1,
  -0.925 0.379 0.996,
  -0.708 0.706 0.988,
  -0.708 0.702 1,
  -0.709 0.704 0.991,
  -0.384 0.918 1,
  -0.00308 0.994 1,
  0.378 0.918 1,
  0.701 0.702 1,
  0.993 -0.00269 1,
  0.917 0.379 1,
  -0.00308 -0.00269 1.65,
  0.38 -0.00269 1.6,
  0.35 0.144 1.6,
  0.268 0.268 1.6,
  0.143 0.351 1.6,
  -0.00308 0.38 1.6,
  -0.15 0.351 1.6,
  -0.274 0.268 1.6,
  -0.357 0.144 1.6,
  -0.386 -0.00269 1.6,
  -0.357 -0.149 1.6,
  -0.274 -0.273 1.6,
  -0.15 -0.356 1.6,
  -0.00308 -0.385 1.6,
  0.143 -0.356 1.6,
  0.268 -0.273 1.6,
  0.35 -0.149 1.6,
  0.704 -0.00269 1.46,
  0.65 0.268 1.46,
  0.497 0.497 1.46,
  0.268 0.651 1.46,
  -0.00308 0.704 1.46,
  -0.274 0.651 1.46,
  -0.503 0.497 1.46,
  -0.656 0.268 1.46,
  -0.71 -0.00269 1.46,
  -0.656 -0.273 1.46,
  -0.503 -0.503 1.46,
  -0.274 -0.656 1.46,
  -0.00308 -0.71 1.46,
  0.268 -0.656 1.46,
  0.497 -0.503 1.46,
  0.65 -0.273 1.46,
  0.921 -0.00269 1.24,
  0.85 0.351 1.24,
  0.65 0.651 1.24,
  0.35 0.851 1.24,
  -0.00308 0.921 1.24,
  -0.357 0.851 1.24,
  -0.656 0.651 1.24,
  -0.857 0.351 1.24,
  -0.927 -0.00269 1.24,
  -0.857 -0.356 1.24,
  -0.656 -0.656 1.24,
  -0.357 -0.856 1.24,
  -0.00308 -0.927 1.24,
  0.35 -0.856 1.24,
  0.65 -0.656 1.24,
  0.85 -0.356 1.24,
  -0.71 0.704 0.988,
  -0.927 0.38 0.988,
  -1 -0.00269 0.988,
  -0.927 -0.385 0.988,
  -0.71 -0.71 0.988,
  -0.386 -0.927 0.988,
  -0.00308 -1 0.988,
  0.38 -0.927 0.988,
  0.704 -0.71 0.988 ]
}

coordIndex	[ 0, 16, 17, 1, -1, 1, 17, 18,
  2, -1, 2, 18, 19, 3, -1, 3,
  19, 20, 4, -1, 4, 20, 21, 5,
  -1, 5, 21, 22, 6, -1, 37, 9,
  8, 39, 47, -1, 14, 27, 28, 15,
  -1, 15, 28, 16, 0, -1, 2, 3,
  4, 5, 6, 7, 8, 9, 10, 11,
  12, 13, 14, 15, 0, 1, -1, 33,
  13, 12, 35, 43, -1, 25, 34, 30,
  -1, 24, 31, 38, -1, 50, 53, 32,
  26, 27, 14, 13, 33, 42, -1, 34,
  25, 26, 32, 55, -1, 29, 10, 9,
  37, 46, -1, 39, 8, 7, 41, 48,
  -1, 58, 49, 41, 7, 6, 22, 23,
  40, 60, -1, 36, 11, 10, 29, 45,
  -1, 35, 12, 11, 36, 44, -1, 64,
  63, 62, 61, 59, 56, 31, 24, 23,
  22, 21, 20, 19, 18, 17, 16, 28,
  27, 26, 25, 30, 54, 52, 51, 65,
  66, -1, 40, 23, 24, 38, 57, -1,
  68, 67, 69, -1, 69, 67, 70, -1,
  70, 67, 71, -1, 71, 67, 72, -1,
  72, 67, 73, -1, 73, 67, 74, -1,
  74, 67, 75, -1, 75, 67, 76, -1,
  76, 67, 77, -1, 77, 67, 78, -1,
  78, 67, 79, -1, 79, 67, 80, -1,
  80, 67, 81, -1, 81, 67, 82, -1,
  82, 67, 83, -1, 83, 67, 68, -1,
  85, 84, 68, 69, -1, 86, 85, 69,
  70, -1, 87, 86, 70, 71, -1, 88,
  87, 71, 72, -1, 89, 88, 72, 73,
  -1, 90, 89, 73, 74, -1, 91, 90,
  74, 75, -1, 92, 91, 75, 76, -1,
  93, 92, 76, 77, -1, 94, 93, 77,
  78, -1, 95, 94, 78, 79, -1, 96,
  95, 79, 80, -1, 97, 96, 80, 81,
  -1, 98, 97, 81, 82, -1, 99, 98,
  82, 83, -1, 84, 99, 83, 68, -1,
  101, 100, 84, 85, -1, 102, 101, 85,
  86, -1, 103, 102, 86, 87, -1, 104,
  103, 87, 88, -1, 105, 104, 88, 89,
  -1, 106, 105, 89, 90, -1, 107, 106,
  90, 91, -1, 108, 107, 91, 92, -1,
  109, 108, 92, 93, -1, 110, 109, 93,
  94, -1, 111, 110, 94, 95, -1, 112,
  111, 95, 96, -1, 113, 112, 96, 97,
  -1, 114, 113, 97, 98, -1, 115, 114,
  98, 99, -1, 100, 115, 99, 84, -1,
  116, 58, 60, -1, 107, 108, 31, 56,
  -1, 31, 118, 117, 57, 38, -1, 119,
  118, 31, 108, 109, -1, 119, 109, 110,
  120, -1, 120, 110, 111, 121, -1, 112,
  30, 122, 121, 111, -1, 102, 103, 63,
  64, -1, 114, 115, 51, 52, -1, 115,
  100, 65, 51, -1, 119, 120, 29, 46,
  -1, 120, 121, 45, 29, -1, 124, 50,
  42, -1, 113, 114, 52, 54, -1, 43,
  123, 124, 42, 33, -1, 112, 113, 54,
  30, -1, 44, 122, 123, 43, 35, -1,
  45, 121, 122, 44, 36, -1, 47, 118,
  119, 46, 37, -1, 57, 117, 116, 60,
  40, -1, 117, 118, 47, 39, 48, -1,
  116, 117, 48, 41, 49, -1, 106, 107,
  56, 59, -1, 116, 49, 58, -1, 105,
  106, 59, 61, -1, 103, 104, 62, 63,
  -1, 104, 105, 61, 62, -1, 123, 122,
  30, 34, 55, -1, 124, 123, 55, 32,
  53, -1, 124, 53, 50, -1, 101, 102,
  64, 66, -1, 100, 101, 66, 65, -1 ]
colorPerVertex	FALSE
ccw	FALSE
convex	FALSE
solid	TRUE
creaseAngle	0.559
normalIndex	[  ]
texCoordIndex	[  ]
}

}

translation	5.75 -12.8 -8.88125
scale	0.5 0.5 0.75
center	0 0 0.325
}
Transform {
children	[
DEF Cube Transform {
children	Shape {
appearance	Appearance {
material	Material {
ambientIntensity	0.32
diffuseColor	0.757 0.345 0.325
specularColor	0.45 0.45 0.45
emissiveColor	0 0 0
shininess	0.16
transparency	0.0627
}

}

geometry	DEF _7 IndexedFaceSet {
coord	Coordinate {
point	[ 0.929 -1 -1,
  1 -0.95 -1,
  0.995 -0.969 -1,
  0.979 -0.985 -1,
  0.956 -0.996 -1,
  -0.93 -1 -1,
  -1 -0.952 -1,
  -0.957 -0.996 -1,
  -0.98 -0.985 -1,
  -0.995 -0.969 -1,
  -0.929 1 -1,
  0.995 0.97 0.82,
  0.979 0.986 0.814,
  0.956 0.997 0.81,
  -0.957 0.996 0.81,
  -0.995 0.969 0.821,
  -0.98 0.985 0.814,
  -1 0.953 0.827,
  -1 0.503 1,
  0.934 1 0.809,
  -0.929 1 0.809,
  1 0.951 0.828,
  1 0.503 1,
  1 0.951 -0.457,
  0.995 0.97 -0.645,
  0.979 0.986 -0.832,
  0.956 0.997 -0.958,
  0.934 1 -0.996,
  0.931 1 -1,
  1 0.48 -1,
  0.957 0.958 -1,
  0.957 0.996 -0.956,
  0.98 0.833 -1,
  0.98 0.985 -0.825,
  0.996 0.646 -1,
  0.996 0.965 -0.631,
  -0.995 0.969 -0.632,
  -0.98 0.985 -0.829,
  -0.957 0.996 -0.961,
  -0.934 0.999 -1,
  -1 0.953 -0.443,
  -1 0.47 -1,
  -0.996 0.65 -1,
  -0.98 0.838 -1,
  -0.957 0.963 -1,
  1 -0.95 0.726,
  0.995 -0.969 0.704,
  0.979 -0.985 0.686,
  0.956 -0.996 0.673,
  0.929 -1 0.669,
  -0.93 -1 0.669,
  -0.957 -0.996 0.673,
  -1 -0.952 0.724,
  -0.98 -0.985 0.686,
  -0.995 -0.969 0.705,
  -1 -0.713 1,
  1 -0.713 1 ]
}

coordIndex	[ 13, 26, 31, 25, 12, -1, 18, 22,
  56, 55, -1, 15, 16, 14, 20, 19,
  13, 12, 11, 21, 22, 18, 17, -1,
  11, 24, 35, 23, 21, -1, 17, 40,
  36, 15, -1, 10, 28, 27, 19, 20,
  -1, 12, 25, 33, 24, 11, -1, 27,
  26, 13, 19, -1, 23, 35, 34, 29,
  -1, 33, 25, 31, 30, 32, -1, 35,
  24, 33, 32, 34, -1, 31, 26, 27,
  28, 30, -1, 15, 36, 37, 16, -1,
  16, 37, 38, 14, -1, 42, 41, 6,
  9, 8, 7, 5, 0, 4, 3, 2,
  1, 29, 34, 32, 30, 28, 10, 39,
  44, 43, -1, 6, 41, 40, 17, 18,
  55, 52, -1, 20, 14, 38, 39, 10,
  -1, 39, 38, 44, -1, 37, 36, 42,
  43, -1, 36, 40, 41, 42, -1, 38,
  37, 43, 44, -1, 8, 9, 54, 53,
  -1, 9, 6, 52, 54, -1, 7, 8,
  53, 51, -1, 5, 7, 51, 50, -1,
  0, 5, 50, 49, -1, 4, 0, 49,
  48, -1, 3, 4, 48, 47, -1, 2,
  3, 47, 46, -1, 1, 2, 46, 45,
  -1, 22, 21, 23, 29, 1, 45, 56,
  -1, 46, 47, 48, 49, 50, 51, 53,
  54, 52, 55, 56, 45, -1 ]
colorPerVertex	FALSE
ccw	FALSE
convex	FALSE
solid	TRUE
creaseAngle	0.559
normalIndex	[  ]
texCoordIndex	[  ]
}

}

translation	-0.112 3.37 -10.3
rotation	1 0 0  0.524
scale	6.95 1 1.5
scaleOrientation	0 0 1  0
center	0 -5.96046e-008 -1.78814e-007
}
DEF Cube Transform {
children	[
Transform {
children	Shape {
appearance	Appearance {
material	Material {
ambientIntensity	0.32
diffuseColor	0.18 0.169 0.314
specularColor	0.45 0.45 0.45
emissiveColor	0 0 0
shininess	0.16
transparency	0
}

}

geometry	DEF _8 IndexedFaceSet {
coord	Coordinate {
point	[ 0.929 -1 -1,
  0.929 -1 1,
  1 -0.95 1,
  1 -0.95 -1,
  0.995 -0.969 -1,
  0.995 -0.969 1,
  0.979 -0.985 -1,
  0.979 -0.985 1,
  0.956 -0.996 -1,
  0.956 -0.996 1,
  -0.93 -1 1,
  -0.93 -1 -1,
  -1 -0.952 1,
  -1 -0.952 -1,
  -0.957 -0.996 -1,
  -0.957 -0.996 1,
  -0.98 -0.985 -1,
  -0.98 -0.985 1,
  -0.995 -0.969 -1,
  -0.995 -0.969 1,
  -0.929 1 -1,
  -0.929 1 1,
  -1 0.953 1,
  -1 0.953 -1,
  -0.995 0.969 -1,
  -0.995 0.969 1,
  -0.98 0.985 -1,
  -0.98 0.985 1,
  -0.957 0.996 -1,
  -0.957 0.996 1,
  1 0.951 -1,
  1 0.951 1,
  0.934 1 1,
  0.934 1 -1,
  0.956 0.997 -1,
  0.956 0.997 1,
  0.979 0.986 -1,
  0.979 0.986 1,
  0.995 0.97 -1,
  0.995 0.97 1,
  0.875 1 -1,
  -0.875 1 -1,
  -0.875 1 1,
  0.875 1 1,
  -0.814 0.202 -1,
  -0.814 0.202 1,
  -0.875 0.52 1,
  -0.875 0.52 -1,
  -0.837 0.229 1,
  -0.837 0.229 -1,
  -0.858 0.302 1,
  -0.858 0.302 -1,
  -0.871 0.41 1,
  -0.871 0.41 -1,
  0.875 0.534 -1,
  0.875 0.534 1,
  0.813 0.202 1,
  0.813 0.202 -1,
  0.87 0.408 1,
  0.87 0.408 -1,
  0.857 0.3 1,
  0.857 0.3 -1,
  0.836 0.227 1,
  0.836 0.227 -1,
  0.813 0.202 -1,
  0.875 0.534 -1,
  0.87 0.408 -1,
  0.857 0.3 -1,
  0.836 0.227 -1,
  -0.814 0.202 -1,
  -0.875 0.52 -1,
  -0.837 0.229 -1,
  -0.858 0.302 -1,
  -0.871 0.41 -1,
  0.875 13.2 0.992,
  0.817 13.5 0.992,
  0.836 13.5 0.992,
  0.856 13.4 0.992,
  0.87 13.3 0.992,
  -0.813 13.5 0.992,
  -0.875 13.2 0.992,
  -0.871 13.3 0.992,
  -0.858 13.4 0.992,
  -0.837 13.5 0.992,
  -0.875 12.9 -1,
  0.875 12.9 -1,
  -0.875 12.9 0.992,
  0.875 12.9 0.992,
  0.93 12.9 -1.01,
  0.93 12.9 0.992,
  1 13 0.992,
  1 13 -1.01,
  0.996 12.9 -1.01,
  0.996 12.9 0.992,
  0.98 12.9 -1.01,
  0.98 12.9 0.992,
  0.957 12.9 -1.01,
  0.957 12.9 0.992,
  -0.929 12.9 0.992,
  -0.929 12.9 -1.01,
  -0.999 13 0.992,
  -0.999 13 -1.01,
  -0.956 12.9 -1.01,
  -0.956 12.9 0.992,
  -0.979 12.9 -1.01,
  -0.979 12.9 0.992,
  -0.994 12.9 -1.01,
  -0.994 12.9 0.992,
  -0.928 14.9 -1.01,
  -0.928 14.9 0.992,
  -0.999 14.9 0.992,
  -0.999 14.9 -1.01,
  -0.994 14.9 -1.01,
  -0.994 14.9 0.992,
  -0.979 14.9 -1.01,
  -0.979 14.9 0.992,
  -0.956 14.9 -1.01,
  -0.956 14.9 0.992,
  1 14.9 -1.01,
  1 14.9 0.992,
  0.935 14.9 0.992,
  0.935 14.9 -1.01,
  0.957 14.9 -1.01,
  0.957 14.9 0.992,
  0.98 14.9 -1.01,
  0.98 14.9 0.992,
  0.996 14.9 -1.01,
  0.996 14.9 0.992,
  -0.814 0.202 9.59,
  0.875 0.534 9.59,
  -0.875 0.52 9.59,
  -0.837 0.229 9.59,
  -0.858 0.302 9.59,
  -0.871 0.41 9.59,
  0.813 0.202 9.59,
  0.87 0.408 9.59,
  0.857 0.3 9.59,
  0.836 0.227 9.59,
  0.875 1.26 9.59,
  -0.875 1.26 9.59,
  0.817 13.5 9.59,
  -0.875 13.2 9.59,
  0.875 13.2 9.59,
  0.836 13.5 9.59,
  0.856 13.4 9.59,
  0.87 13.3 9.59,
  -0.813 13.5 9.59,
  -0.871 13.3 9.59,
  -0.858 13.4 9.59,
  -0.837 13.5 9.59,
  0.875 12.4 9.59,
  -0.875 12.4 9.59,
  0.875 12.4 14.3,
  0.875 1.26 14.3,
  -0.875 1.26 14.3,
  -0.875 12.4 14.3,
  0.875 2.22 14.3,
  0.875 11.6 14.3,
  -0.875 11.6 14.3,
  -0.875 2.22 14.3,
  0.875 11.6 10.4,
  -0.875 11.6 10.4,
  0.875 2.22 10.4,
  -0.875 2.22 10.4 ]
}

coordIndex	[ 161, 160, 162, 163, -1 ]
colorPerVertex	FALSE
ccw	FALSE
convex	FALSE
solid	TRUE
creaseAngle	0.559
normalIndex	[  ]
texCoordIndex	[  ]
}

}

center	0 6.91 10.4
}
Transform {
children	Shape {
appearance	Appearance {
material	Material {
ambientIntensity	0.25
diffuseColor	1 1 1
specularColor	0.48 0.48 0.48
emissiveColor	0 0 0
shininess	0.14
transparency	0
}

}

geometry	DEF _9 IndexedFaceSet {
coord	Coordinate {
point	[ 0.929 -1 -1,
  0.929 -1 1,
  1 -0.95 1,
  1 -0.95 -1,
  0.995 -0.969 -1,
  0.995 -0.969 1,
  0.979 -0.985 -1,
  0.979 -0.985 1,
  0.956 -0.996 -1,
  0.956 -0.996 1,
  -0.93 -1 1,
  -0.93 -1 -1,
  -1 -0.952 1,
  -1 -0.952 -1,
  -0.957 -0.996 -1,
  -0.957 -0.996 1,
  -0.98 -0.985 -1,
  -0.98 -0.985 1,
  -0.995 -0.969 -1,
  -0.995 -0.969 1,
  -0.929 1 -1,
  -0.929 1 1,
  -1 0.953 1,
  -1 0.953 -1,
  -0.995 0.969 -1,
  -0.995 0.969 1,
  -0.98 0.985 -1,
  -0.98 0.985 1,
  -0.957 0.996 -1,
  -0.957 0.996 1,
  1 0.951 -1,
  1 0.951 1,
  0.934 1 1,
  0.934 1 -1,
  0.956 0.997 -1,
  0.956 0.997 1,
  0.979 0.986 -1,
  0.979 0.986 1,
  0.995 0.97 -1,
  0.995 0.97 1,
  0.875 1 -1,
  -0.875 1 -1,
  -0.875 1 1,
  0.875 1 1,
  -0.814 0.202 -1,
  -0.814 0.202 1,
  -0.875 0.52 1,
  -0.875 0.52 -1,
  -0.837 0.229 1,
  -0.837 0.229 -1,
  -0.858 0.302 1,
  -0.858 0.302 -1,
  -0.871 0.41 1,
  -0.871 0.41 -1,
  0.875 0.534 -1,
  0.875 0.534 1,
  0.813 0.202 1,
  0.813 0.202 -1,
  0.87 0.408 1,
  0.87 0.408 -1,
  0.857 0.3 1,
  0.857 0.3 -1,
  0.836 0.227 1,
  0.836 0.227 -1,
  0.813 0.202 -1,
  0.875 0.534 -1,
  0.87 0.408 -1,
  0.857 0.3 -1,
  0.836 0.227 -1,
  -0.814 0.202 -1,
  -0.875 0.52 -1,
  -0.837 0.229 -1,
  -0.858 0.302 -1,
  -0.871 0.41 -1,
  0.875 13.2 0.992,
  0.817 13.5 0.992,
  0.836 13.5 0.992,
  0.856 13.4 0.992,
  0.87 13.3 0.992,
  -0.813 13.5 0.992,
  -0.875 13.2 0.992,
  -0.871 13.3 0.992,
  -0.858 13.4 0.992,
  -0.837 13.5 0.992,
  -0.875 12.9 -1,
  0.875 12.9 -1,
  -0.875 12.9 0.992,
  0.875 12.9 0.992,
  0.93 12.9 -1.01,
  0.93 12.9 0.992,
  1 13 0.992,
  1 13 -1.01,
  0.996 12.9 -1.01,
  0.996 12.9 0.992,
  0.98 12.9 -1.01,
  0.98 12.9 0.992,
  0.957 12.9 -1.01,
  0.957 12.9 0.992,
  -0.929 12.9 0.992,
  -0.929 12.9 -1.01,
  -0.999 13 0.992,
  -0.999 13 -1.01,
  -0.956 12.9 -1.01,
  -0.956 12.9 0.992,
  -0.979 12.9 -1.01,
  -0.979 12.9 0.992,
  -0.994 12.9 -1.01,
  -0.994 12.9 0.992,
  -0.928 14.9 -1.01,
  -0.928 14.9 0.992,
  -0.999 14.9 0.992,
  -0.999 14.9 -1.01,
  -0.994 14.9 -1.01,
  -0.994 14.9 0.992,
  -0.979 14.9 -1.01,
  -0.979 14.9 0.992,
  -0.956 14.9 -1.01,
  -0.956 14.9 0.992,
  1 14.9 -1.01,
  1 14.9 0.992,
  0.935 14.9 0.992,
  0.935 14.9 -1.01,
  0.957 14.9 -1.01,
  0.957 14.9 0.992,
  0.98 14.9 -1.01,
  0.98 14.9 0.992,
  0.996 14.9 -1.01,
  0.996 14.9 0.992,
  -0.814 0.202 9.59,
  0.875 0.534 9.59,
  -0.875 0.52 9.59,
  -0.837 0.229 9.59,
  -0.858 0.302 9.59,
  -0.871 0.41 9.59,
  0.813 0.202 9.59,
  0.87 0.408 9.59,
  0.857 0.3 9.59,
  0.836 0.227 9.59,
  0.875 1.26 9.59,
  -0.875 1.26 9.59,
  0.817 13.5 9.59,
  -0.875 13.2 9.59,
  0.875 13.2 9.59,
  0.836 13.5 9.59,
  0.856 13.4 9.59,
  0.87 13.3 9.59,
  -0.813 13.5 9.59,
  -0.871 13.3 9.59,
  -0.858 13.4 9.59,
  -0.837 13.5 9.59,
  0.875 12.4 9.59,
  -0.875 12.4 9.59,
  0.875 12.4 14.3,
  0.875 1.26 14.3,
  -0.875 1.26 14.3,
  -0.875 12.4 14.3,
  0.875 2.22 14.3,
  0.875 11.6 14.3,
  -0.875 11.6 14.3,
  -0.875 2.22 14.3,
  0.875 11.6 10.4,
  -0.875 11.6 10.4,
  0.875 2.22 10.4,
  -0.875 2.22 10.4 ]
}

coordIndex	[ 27, 25, 24, 26, -1, 25, 22, 23,
  24, -1, 29, 27, 26, 28, -1, 28,
  20, 21, 29, -1, 35, 32, 33, 34,
  -1, 37, 35, 34, 36, -1, 39, 37,
  36, 38, -1, 30, 31, 39, 38, -1,
  61, 63, 57, 44, 49, 51, 53, 47,
  41, 20, 28, 26, 24, 23, 13, 18,
  16, 14, 11, 0, 8, 6, 4, 3,
  30, 38, 36, 34, 33, 40, 54, 59,
  -1, 32, 43, 40, 33, -1, 52, 133,
  132, 50, -1, 20, 41, 42, 21, -1,
  81, 147, 141, 80, -1, 73, 72, 71,
  69, 64, 68, 67, 66, 65, 85, 84,
  70, -1, 70, 47, 53, 73, -1, 73,
  53, 51, 72, -1, 72, 51, 49, 71,
  -1, 71, 49, 44, 69, -1, 69, 44,
  57, 64, -1, 64, 57, 63, 68, -1,
  68, 63, 61, 67, -1, 67, 61, 59,
  66, -1, 66, 59, 54, 65, -1, 82,
  148, 147, 81, -1, 83, 149, 148, 82,
  -1, 79, 146, 149, 83, -1, 75, 140,
  146, 79, -1, 76, 143, 140, 75, -1,
  77, 144, 143, 76, -1, 78, 145, 144,
  77, -1, 74, 142, 145, 78, -1, 93,
  90, 91, 92, -1, 115, 113, 112, 114,
  -1, 113, 110, 111, 112, -1, 117, 115,
  114, 116, -1, 116, 108, 109, 117, -1,
  122, 121, 108, 116, 114, 112, 111, 101,
  106, 104, 102, 99, 88, 96, 94, 92,
  91, 118, 126, 124, -1, 163, 159, 154,
  139, 130, 46, 42, 41, 47, 70, 84,
  86, 80, 141, 151, 155, 158, 161, -1,
  46, 130, 133, 52, -1, 50, 132, 131,
  48, -1, 48, 131, 128, 45, -1, 45,
  128, 134, 56, -1, 56, 134, 137, 62,
  -1, 62, 137, 136, 60, -1, 60, 136,
  135, 58, -1, 58, 135, 129, 55, -1,
  137, 134, 128, 131, 132, 133, 130, 139,
  138, 129, 135, 136, -1, 151, 150, 152,
  155, -1, 141, 147, 148, 149, 146, 140,
  143, 144, 145, 142, 150, 151, -1, 138,
  139, 154, 153, -1, 155, 152, 157, 158,
  -1, 157, 152, 150, 142, 74, 87, 85,
  65, 54, 40, 43, 55, 129, 138, 153,
  156, 162, 160, -1, 153, 154, 159, 156,
  -1, 163, 162, 156, 159, -1, 161, 158,
  157, 160, -1 ]
colorPerVertex	FALSE
ccw	FALSE
convex	FALSE
solid	TRUE
creaseAngle	0.559
normalIndex	[  ]
texCoordIndex	[  ]
}

}

center	0 6.95 6.645
}
Transform {
children	Shape {
appearance	Appearance {
material	Material {
ambientIntensity	0.1
diffuseColor	0.259 0.271 0.259
specularColor	0 0 0
emissiveColor	0 0 0
shininess	0
transparency	0
}

}

geometry	DEF _10 IndexedFaceSet {
coord	Coordinate {
point	[ 0.929 -1 -1,
  0.929 -1 1,
  1 -0.95 1,
  1 -0.95 -1,
  0.995 -0.969 -1,
  0.995 -0.969 1,
  0.979 -0.985 -1,
  0.979 -0.985 1,
  0.956 -0.996 -1,
  0.956 -0.996 1,
  -0.93 -1 1,
  -0.93 -1 -1,
  -1 -0.952 1,
  -1 -0.952 -1,
  -0.957 -0.996 -1,
  -0.957 -0.996 1,
  -0.98 -0.985 -1,
  -0.98 -0.985 1,
  -0.995 -0.969 -1,
  -0.995 -0.969 1,
  -0.929 1 -1,
  -0.929 1 1,
  -1 0.953 1,
  -1 0.953 -1,
  -0.995 0.969 -1,
  -0.995 0.969 1,
  -0.98 0.985 -1,
  -0.98 0.985 1,
  -0.957 0.996 -1,
  -0.957 0.996 1,
  1 0.951 -1,
  1 0.951 1,
  0.934 1 1,
  0.934 1 -1,
  0.956 0.997 -1,
  0.956 0.997 1,
  0.979 0.986 -1,
  0.979 0.986 1,
  0.995 0.97 -1,
  0.995 0.97 1,
  0.875 1 -1,
  -0.875 1 -1,
  -0.875 1 1,
  0.875 1 1,
  -0.814 0.202 -1,
  -0.814 0.202 1,
  -0.875 0.52 1,
  -0.875 0.52 -1,
  -0.837 0.229 1,
  -0.837 0.229 -1,
  -0.858 0.302 1,
  -0.858 0.302 -1,
  -0.871 0.41 1,
  -0.871 0.41 -1,
  0.875 0.534 -1,
  0.875 0.534 1,
  0.813 0.202 1,
  0.813 0.202 -1,
  0.87 0.408 1,
  0.87 0.408 -1,
  0.857 0.3 1,
  0.857 0.3 -1,
  0.836 0.227 1,
  0.836 0.227 -1,
  0.813 0.202 -1,
  0.875 0.534 -1,
  0.87 0.408 -1,
  0.857 0.3 -1,
  0.836 0.227 -1,
  -0.814 0.202 -1,
  -0.875 0.52 -1,
  -0.837 0.229 -1,
  -0.858 0.302 -1,
  -0.871 0.41 -1,
  0.875 13.2 0.992,
  0.817 13.5 0.992,
  0.836 13.5 0.992,
  0.856 13.4 0.992,
  0.87 13.3 0.992,
  -0.813 13.5 0.992,
  -0.875 13.2 0.992,
  -0.871 13.3 0.992,
  -0.858 13.4 0.992,
  -0.837 13.5 0.992,
  -0.875 12.9 -1,
  0.875 12.9 -1,
  -0.875 12.9 0.992,
  0.875 12.9 0.992,
  0.93 12.9 -1.01,
  0.93 12.9 0.992,
  1 13 0.992,
  1 13 -1.01,
  0.996 12.9 -1.01,
  0.996 12.9 0.992,
  0.98 12.9 -1.01,
  0.98 12.9 0.992,
  0.957 12.9 -1.01,
  0.957 12.9 0.992,
  -0.929 12.9 0.992,
  -0.929 12.9 -1.01,
  -0.999 13 0.992,
  -0.999 13 -1.01,
  -0.956 12.9 -1.01,
  -0.956 12.9 0.992,
  -0.979 12.9 -1.01,
  -0.979 12.9 0.992,
  -0.994 12.9 -1.01,
  -0.994 12.9 0.992,
  -0.928 14.9 -1.01,
  -0.928 14.9 0.992,
  -0.999 14.9 0.992,
  -0.999 14.9 -1.01,
  -0.994 14.9 -1.01,
  -0.994 14.9 0.992,
  -0.979 14.9 -1.01,
  -0.979 14.9 0.992,
  -0.956 14.9 -1.01,
  -0.956 14.9 0.992,
  1 14.9 -1.01,
  1 14.9 0.992,
  0.935 14.9 0.992,
  0.935 14.9 -1.01,
  0.957 14.9 -1.01,
  0.957 14.9 0.992,
  0.98 14.9 -1.01,
  0.98 14.9 0.992,
  0.996 14.9 -1.01,
  0.996 14.9 0.992,
  -0.814 0.202 9.59,
  0.875 0.534 9.59,
  -0.875 0.52 9.59,
  -0.837 0.229 9.59,
  -0.858 0.302 9.59,
  -0.871 0.41 9.59,
  0.813 0.202 9.59,
  0.87 0.408 9.59,
  0.857 0.3 9.59,
  0.836 0.227 9.59,
  0.875 1.26 9.59,
  -0.875 1.26 9.59,
  0.817 13.5 9.59,
  -0.875 13.2 9.59,
  0.875 13.2 9.59,
  0.836 13.5 9.59,
  0.856 13.4 9.59,
  0.87 13.3 9.59,
  -0.813 13.5 9.59,
  -0.871 13.3 9.59,
  -0.858 13.4 9.59,
  -0.837 13.5 9.59,
  0.875 12.4 9.59,
  -0.875 12.4 9.59,
  0.875 12.4 14.3,
  0.875 1.26 14.3,
  -0.875 1.26 14.3,
  -0.875 12.4 14.3,
  0.875 2.22 14.3,
  0.875 11.6 14.3,
  -0.875 11.6 14.3,
  -0.875 2.22 14.3,
  0.875 11.6 10.4,
  -0.875 11.6 10.4,
  0.875 2.22 10.4,
  -0.875 2.22 10.4 ]
}

coordIndex	[ 2, 31, 30, 3, -1, 9, 7, 6,
  8, -1, 1, 9, 8, 0, -1, 7,
  5, 4, 6, -1, 5, 2, 3, 4,
  -1, 0, 11, 10, 1, -1, 19, 17,
  16, 18, -1, 12, 19, 18, 13, -1,
  17, 15, 14, 16, -1, 15, 10, 11,
  14, -1, 13, 23, 22, 12, -1, 50,
  48, 45, 56, 62, 60, 58, 55, 43,
  32, 35, 37, 39, 31, 2, 5, 7,
  9, 1, 10, 15, 17, 19, 12, 22,
  25, 27, 29, 21, 42, 46, 52, -1,
  90, 119, 118, 91, -1, 97, 95, 94,
  96, -1, 89, 97, 96, 88, -1, 95,
  93, 92, 94, -1, 107, 105, 104, 106,
  -1, 100, 107, 106, 101, -1, 105, 103,
  102, 104, -1, 103, 98, 99, 102, -1,
  77, 76, 75, 79, 83, 82, 81, 80,
  86, 98, 103, 105, 107, 100, 110, 113,
  115, 117, 109, 120, 123, 125, 127, 119,
  90, 93, 95, 97, 89, 87, 74, 78,
  -1, 108, 121, 120, 109, -1, 101, 111,
  110, 100, -1, 123, 120, 121, 122, -1,
  125, 123, 122, 124, -1, 127, 125, 124,
  126, -1, 118, 119, 127, 126, -1, 88,
  99, 98, 86, 84, 85, 87, 89, -1 ]
colorPerVertex	FALSE
ccw	FALSE
convex	FALSE
solid	TRUE
creaseAngle	0.559
normalIndex	[  ]
texCoordIndex	[  ]
}

}

center	0 6.95 -0.005
}
]
translation	-0.11 -11.925 -19.2225
scale	8 1.5 0.5
center	0 6.95 6.645
}
DEF front_window Transform {
children	Shape {
appearance	Appearance {
material	Material {
ambientIntensity	0.32
diffuseColor	0.757 0.345 0.325
specularColor	0.45 0.45 0.45
emissiveColor	0 0 0
shininess	0.16
transparency	0.0627
}

}

geometry	DEF _11 IndexedFaceSet {
coord	Coordinate {
point	[ 0.929 -1 -1,
  -0.93 -1 -1,
  -0.929 1 -1,
  -1 0.953 -1,
  -0.995 0.969 -1,
  -0.98 0.985 -1,
  -0.957 0.996 -1,
  1 0.951 -1,
  0.934 1 -1,
  0.956 0.997 -1,
  0.979 0.986 -1,
  0.995 0.97 -1,
  -1 -0.524 1,
  -0.957 -0.996 0.818,
  -1 -0.952 0.835,
  -0.98 -0.985 0.822,
  -0.995 -0.969 0.829,
  -0.93 -1 0.817,
  0.995 -0.969 0.829,
  0.929 -1 0.817,
  0.979 -0.985 0.822,
  0.956 -0.996 0.818,
  1 -0.524 1,
  1 -0.95 0.836,
  1 0.756 1,
  0.995 0.97 0.753,
  0.979 0.986 0.734,
  0.956 0.997 0.721,
  -0.957 0.996 0.722,
  -0.995 0.969 0.753,
  -0.98 0.985 0.735,
  -1 0.953 0.773,
  -1 0.756 1,
  0.934 1 0.718,
  -0.929 1 0.718,
  1 0.951 0.775,
  -0.995 -0.969 -0.629,
  -0.98 -0.985 -0.826,
  -0.957 -0.996 -0.958,
  -1 -0.463 -1,
  -0.932 -1 -1,
  -1 -0.952 -0.436,
  -0.957 -0.96 -1,
  -0.98 -0.835 -1,
  -0.995 -0.647 -1,
  1 -0.471 -1,
  1 -0.95 -0.447,
  0.995 -0.969 -0.639,
  0.979 -0.985 -0.831,
  0.933 -0.999 -1,
  0.956 -0.996 -0.96,
  0.996 -0.648 -1,
  0.996 -0.966 -0.632,
  0.98 -0.835 -1,
  0.98 -0.985 -0.828,
  0.957 -0.961 -1,
  0.957 -0.996 -0.959 ]
}

coordIndex	[ 8, 33, 34, 2, -1, 5, 30, 29,
  4, -1, 4, 29, 31, 3, -1, 6,
  28, 30, 5, -1, 2, 34, 28, 6,
  -1, 9, 27, 33, 8, -1, 10, 26,
  27, 9, -1, 11, 25, 26, 10, -1,
  7, 35, 25, 11, -1, 15, 37, 36,
  16, -1, 16, 36, 41, 14, -1, 13,
  38, 37, 15, -1, 17, 1, 40, 38,
  13, -1, 1, 17, 19, 0, -1, 0,
  19, 21, 50, 49, -1, 53, 51, 45,
  7, 11, 10, 9, 8, 2, 6, 5,
  4, 3, 39, 44, 43, 42, 40, 1,
  0, 49, 55, -1, 23, 22, 24, 35,
  7, 45, 46, -1, 20, 21, 19, 17,
  13, 15, 16, 14, 12, 22, 23, 18,
  -1, 12, 32, 24, 22, -1, 31, 29,
  30, 28, 34, 33, 27, 26, 25, 35,
  24, 32, -1, 31, 32, 12, 14, 41,
  39, 3, -1, 43, 44, 36, 37, -1,
  40, 42, 38, -1, 44, 39, 41, 36,
  -1, 42, 43, 37, 38, -1, 47, 18,
  23, 46, 52, -1, 48, 20, 18, 47,
  54, -1, 50, 21, 20, 48, 56, -1,
  52, 46, 45, 51, -1, 48, 54, 53,
  55, 56, -1, 47, 52, 51, 53, 54,
  -1, 56, 55, 49, 50, -1 ]
colorPerVertex	FALSE
ccw	FALSE
convex	FALSE
solid	TRUE
creaseAngle	0.559
normalIndex	[  ]
texCoordIndex	[  ]
}

}

translation	-0.11 -13.5 -10.3
rotation	-1 0 0  0.524
scale	6.95 1 1.5
scaleOrientation	0 0 1  0
center	0 -5.96046e-008 1.78814e-007
}
]
center	-0.11 -4.975 -12.453
}
]
center	-0.11 -4.975 -11.9837
}
]
translation	-0.0384 -7.01271 10.2292
rotation	-1 0 0  1.57
scale	1 1 1
center	-0.11 -4.975 -11.9838
}
DEF UnnamedAnimation0Trigger_12 TouchSensor {
}
DEF UnnamedAnimation0 Group {
children	[
DEF UnnamedAnimation0Time_13 TimeSensor {
startTime	0
cycleInterval	10
}
DEF UnnamedTransformTranslationInterp_14 PositionInterpolator {
key	[ 0, 0.01, 0.02, 0.03,
  0.04, 0.05, 0.06, 0.07,
  0.08, 0.09, 0.1, 0.11,
  0.12, 0.13, 0.14, 0.15,
  0.16, 0.17, 0.18, 0.19,
  0.2, 0.21, 0.22, 0.23,
  0.24, 0.25, 0.26, 0.27,
  0.28, 0.29, 0.3, 0.31,
  0.32, 0.33, 0.34, 0.35,
  0.36, 0.37, 0.38, 0.39,
  0.4, 0.41, 0.42, 0.43,
  0.44, 0.45, 0.46, 0.47,
  0.48, 0.49, 0.5, 0.51,
  0.52, 0.53, 0.54, 0.55,
  0.56, 0.57, 0.58, 0.59,
  0.6, 0.61, 0.62, 0.63,
  0.64, 0.65, 0.66, 0.67,
  0.68, 0.69, 0.7, 0.71,
  0.72, 0.73, 0.74, 0.75,
  0.76, 0.77, 0.78, 0.79,
  0.8, 0.81, 0.82, 0.83,
  0.84, 0.85, 0.86, 0.87,
  0.88, 0.89, 0.9, 0.91,
  0.92, 0.93, 0.94, 0.95,
  0.96, 0.97, 0.98, 0.99,
  1 ]
keyValue	[ -1.08636e-005 0 0.669627,
  -0.230368 0 11.1649,
  -0.923221 0 22.5695,
  -1.88036 0 34.4938,
  -2.90356 0 46.5479,
  -3.79463 0 58.3423,
  -4.35534 0 69.4871,
  -4.38749 0 79.5926,
  -3.69285 0 88.2691,
  -2.07323 0 95.1269,
  0.669602 0 99.7762,
  4.32122 0 103.057,
  8.49329 0 106.062,
  13.1231 0 108.784,
  18.148 0 111.214,
  23.5052 0 113.342,
  29.1321 0 115.159,
  34.966 0 116.658,
  40.9442 0 117.829,
  47.0039 0 118.664,
  53.0825 0 119.154,
  59.1174 0 119.289,
  65.0457 0 119.062,
  70.8048 0 118.462,
  76.3321 0 117.483,
  81.5648 0 116.114,
  86.4401 0 114.347,
  90.8955 0 112.174,
  94.8683 0 109.584,
  98.2957 0 106.571,
  101.115 0 103.124,
  103.482 0 98.9106,
  105.595 0 93.6778,
  107.454 0 87.5377,
  109.06 0 80.6028,
  110.412 0 72.9851,
  111.51 0 64.797,
  112.356 0 56.1507,
  112.949 0 47.1585,
  113.29 0 37.9325,
  113.378 0 28.5851,
  113.215 0 19.2285,
  112.799 0 9.9749,
  112.133 0 0.936602,
  111.215 0 -7.77416,
  110.046 0 -16.0451,
  108.626 0 -23.7641,
  106.956 0 -30.8188,
  105.036 0 -37.0969,
  102.866 0 -42.4863,
  100.446 0 -46.8747,
  97.5381 0 -50.4997,
  93.9535 0 -53.6829,
  89.7675 0 -56.4379,
  85.055 0 -58.7782,
  79.8912 0 -60.7174,
  74.3512 0 -62.269,
  68.51 0 -63.4467,
  62.4427 0 -64.2639,
  56.2243 0 -64.7342,
  49.9301 0 -64.8713,
  43.635 0 -64.6885,
  37.4142 0 -64.1996,
  31.3427 0 -63.4181,
  25.4956 0 -62.3575,
  19.948 0 -61.0314,
  14.775 0 -59.4533,
  10.0516 0 -57.6368,
  5.853 0 -55.5955,
  2.25422 0 -53.3429,
  -0.669702 0 -50.8926,
  -2.99211 0 -47.9149,
  -4.86064 0 -44.1333,
  -6.31138 0 -39.6412,
  -7.38039 0 -34.532,
  -8.10376 0 -28.8992,
  -8.51756 0 -22.8361,
  -8.65786 0 -16.4362,
  -8.56075 0 -9.79288,
  -8.2623 0 -2.99956,
  -7.79859 0 3.85034,
  -7.2057 0 10.6634,
  -6.5197 0 17.3462,
  -5.77666 0 23.8054,
  -5.01268 0 29.9475,
  -4.26381 0 35.6791,
  -3.56614 0 40.9068,
  -2.95575 0 45.5372,
  -2.46871 0 49.4769,
  -2.14111 0 52.6324,
  -2.009 0 54.9104,
  -1.95275 0 55.3952,
  -1.83579 0 53.5122,
  -1.66883 0 49.6792,
  -1.46258 0 44.3141,
  -1.22776 0 37.8346,
  -0.975084 0 30.6588,
  -0.715265 0 23.2044,
  -0.459018 0 15.8892,
  -0.217055 0 9.13125,
  -9.0819e-005 0 3.34818 ]
}
DEF UnnamedTransformRotationInterp_15 OrientationInterpolator {
key	[ 0, 0.01, 0.02, 0.03,
  0.04, 0.05, 0.06, 0.07,
  0.08, 0.09, 0.1, 0.11,
  0.12, 0.13, 0.14, 0.15,
  0.16, 0.17, 0.18, 0.19,
  0.2, 0.21, 0.22, 0.23,
  0.24, 0.25, 0.26, 0.27,
  0.28, 0.29, 0.3, 0.31,
  0.32, 0.33, 0.34, 0.35,
  0.36, 0.37, 0.38, 0.39,
  0.4, 0.41, 0.42, 0.43,
  0.44, 0.45, 0.46, 0.47,
  0.48, 0.49, 0.5, 0.51,
  0.52, 0.53, 0.54, 0.55,
  0.56, 0.57, 0.58, 0.59,
  0.6, 0.61, 0.62, 0.63,
  0.64, 0.65, 0.66, 0.67,
  0.68, 0.69, 0.7, 0.71,
  0.72, 0.73, 0.74, 0.75,
  0.76, 0.77, 0.78, 0.79,
  0.8 ]
keyValue	[ 0 0 1  0,
  0 1 0  0.0435319,
  0 1 0  0.0944581,
  0 1 0  0.152174,
  0 1 0  0.216076,
  0 1 0  0.285554,
  0 1 0  0.360005,
  0 1 0  0.438824,
  0 1 0  0.521404,
  0 1 0  0.60714,
  0 1 0  0.695425,
  0 1 0  0.785654,
  0 1 0  0.877222,
  0 1 0  0.969522,
  0 1 0  1.06195,
  0 1 0  1.1539,
  0 1 0  1.24476,
  0 1 0  1.33394,
  0 1 0  1.42081,
  0 1 0  1.50479,
  0 1 0  1.58526,
  0 1 0  1.66366,
  0 1 0  1.74185,
  0 1 0  1.81986,
  0 1 0  1.8977,
  0 1 0  1.97541,
  0 1 0  2.053,
  0 1 0  2.1305,
  0 1 0  2.20793,
  0 1 0  2.28532,
  0 1 0  2.36269,
  0 1 0  2.44006,
  0 1 0  2.51746,
  0 1 0  2.59492,
  0 1 0  2.67245,
  0 1 0  2.75008,
  0 1 0  2.82783,
  0 1 0  2.90573,
  0 1 0  2.98379,
  0 1 0  3.06206,
  0 1 0  3.14054,
  0 1 0  3.21927,
  0 1 0  3.29823,
  0 1 0  3.37741,
  0 1 0  3.45678,
  0 1 0  3.5363,
  0 1 0  3.61595,
  0 1 0  3.6957,
  0 1 0  3.77553,
  0 1 0  3.8554,
  0 1 0  3.93529,
  0 1 0  4.01517,
  0 1 0  4.09502,
  0 1 0  4.1748,
  0 1 0  4.25449,
  0 1 0  4.33407,
  0 1 0  4.41349,
  0 1 0  4.49274,
  0 1 0  4.57179,
  0 1 0  4.65061,
  0 -1 0  1.55401,
  0 1 0  4.80934,
  0 1 0  4.89261,
  0 1 0  4.97842,
  0 1 0  5.0662,
  0 1 0  5.15539,
  0 1 0  5.24542,
  0 1 0  5.33572,
  0 1 0  5.42574,
  0 1 0  5.5149,
  0 1 0  5.60264,
  0 1 0  5.6884,
  0 1 0  5.7716,
  0 1 0  5.85169,
  0 1 0  5.9281,
  0 1 0  6.00026,
  0 1 0  6.0676,
  0 1 0  6.12956,
  0 1 0  6.18559,
  0 1 0  6.2351,
  0 -1 0  0.00565227 ]
}
]
}
]
translation	-1.08636e-005 0 0.669627
rotation	0 0 1  0
center	-0.1484 -11.9877 -1.75454
}
Background {
groundAngle	1.57079
groundColor	[ 1 1 1,
  0 0 0 ]
skyAngle	[ 0.2, 1.57079 ]
skyColor	[ 1 1 1,
  0 0 0,
  0 0 0 ]
}
Transform {
children	Shape {
appearance	Appearance {
material	Material {
ambientIntensity	1
diffuseColor	0.54 0.05 0.25
specularColor	0.81 0.77 0.75
emissiveColor	0 0 0
shininess	0.83
transparency	0
}

}

geometry	Box {
}

}

translation	-23.0604 -13.304 -4.49011
scale	3.15093 3.15093 3.15093
}
Transform {
children	Shape {
appearance	Appearance {
material	Material {
ambientIntensity	1
diffuseColor	0.54 0.05 0.25
specularColor	0.81 0.77 0.75
emissiveColor	0 0 0
shininess	0.83
transparency	0
}

}

geometry	Box {
}

}

translation	-23 -13.3069 -28.4802
scale	3.15093 3.15093 3.15093
}
DEF LocLight PointLight {
on	TRUE
intensity	1
color	1 0.914 0.976
location	18.3 4.09 14.6696
}
DEF LocLight PointLight {
on	TRUE
intensity	1
color	0.922 0.906 1
location	-19.6 3.05 17.6696
}
DEF LocLight PointLight {
on	TRUE
intensity	1
color	1 1 1
location	-8.27001 2.93 -23.1304
}
Viewpoint {
position	105.102 26.0152 204.631
orientation	-0.671598 0.731071 0.120382  0.480865
fieldOfView	0.516
description	"Long_shot"
}
Viewpoint {
position	26.1361 23.6353 63.977
orientation	-0.837602 0.526575 0.1454  0.636869
fieldOfView	0.516
description	"Short_shot"
}
ROUTE UnnamedAnimation0Trigger_12.touchTime TO UnnamedAnimation0Time_13.set_startTime
ROUTE UnnamedAnimation0Time_13.fraction_changed TO UnnamedTransformTranslationInterp_14.set_fraction
ROUTE UnnamedAnimation0Time_13.fraction_changed TO UnnamedTransformRotationInterp_15.set_fraction
ROUTE UnnamedTransformTranslationInterp_14.value_changed TO _0.set_translation
ROUTE UnnamedTransformRotationInterp_15.value_changed TO _0.set_rotation
